<svg width="468" height="210" xmlns="http://www.w3.org/2000/svg"><g><g id="svg_1"><path id="svg_10" d="m123.98408,1.66613l82,0l-123.00001,173.00002l-82,0l123.00001,-173.00001l0,-0.00001z" fill="#426373"/><path transform="rotate(-0.802596 159.139 129.261)" stroke="#000" stroke-width="0" id="svg_3" d="m180.18106,196.3531c0,0 4.06965,0 3.89844,-0.09655c0.17122,0.09655 -47.85069,-134.08789 -47.85069,-134.08789c0,0 -2.03483,0.45901 -2.03483,0.45901" fill="#33666C"/><path id="svg_18" d="m176.08211,42.50928l41.86275,44.03922l-76.47059,88.07843l-59.78431,0.15686l94.39215,-132.27451z" stroke="null" fill="#426373"/><path stroke="#000" stroke-width="0" id="svg_2" d="m130.23694,57.85259c0,0 54.61563,138.04342 54.61563,138.04342c0,0 4.84494,0 4.40449,-0.28287c0.44045,0.28287 -55.49652,-138.3263 -55.49652,-138.3263" fill="#5B9BA2"/><line transform="rotate(-0.724608 63.755 88.499)" stroke-width="5" stroke="#A98E49" id="svg_20" y2="3.59977" x2="126.04037" y1="173.39918" x1="1.46941" fill="none"/><text font-style="italic" font-weight="normal" xml:space="preserve" text-anchor="start" font-family="sans-serif" font-size="60" id="svg_23" y="195.99993" x="195.99994" stroke-width="0" stroke="#3B2F0E" fill="#426372">mpromptu</text></g></g></svg>
